HIERARCHY
ROOT root
{
	OFFSET 0.000000 0.000000 0.000000
	CHANNELS 6 Xposition Yposition Zposition Zrotation Yrotation Xrotation
	JOINT lhip
	{
		OFFSET 0.058581 -0.082280 -0.017664
		CHANNELS 3 Zrotation Yrotation Xrotation
		JOINT lknee
		{
			OFFSET 0.043451 -0.386469 0.008037
			CHANNELS 3 Zrotation Yrotation Xrotation
			JOINT lankle
			{
				OFFSET -0.014790 -0.426874 -0.037428
				CHANNELS 3 Zrotation Yrotation Xrotation
				JOINT ltoe
				{
					OFFSET 0.041054 -0.060286 0.122042
					CHANNELS 3 Zrotation Yrotation Xrotation
					End Site
					{
						OFFSET 0.000000 0.000000 0.000000
					}
				}
			}
		}
	}
	JOINT rhip
	{
		OFFSET -0.060310 -0.090513 -0.013543
		CHANNELS 3 Zrotation Yrotation Xrotation
		JOINT rknee
		{
			OFFSET -0.043257 -0.383688 -0.004843
			CHANNELS 3 Zrotation Yrotation Xrotation
			JOINT rankle
			{
				OFFSET 0.019056 -0.420046 -0.034562
				CHANNELS 3 Zrotation Yrotation Xrotation
				JOINT rtoe
				{
					OFFSET -0.034840 -0.062106 0.130323
					CHANNELS 3 Zrotation Yrotation Xrotation
					End Site
					{
						OFFSET 0.000000 0.000000 0.000000
					}
				}
			}
		}
	}
	JOINT lowerback
	{
		OFFSET 0.004439 0.124404 -0.038385
		CHANNELS 3 Zrotation Yrotation Xrotation
		JOINT upperback
		{
			OFFSET 0.004488 0.137956 0.026820
			CHANNELS 3 Zrotation Yrotation Xrotation
			JOINT chest
			{
				OFFSET -0.002265 0.056032 0.002855
				CHANNELS 3 Zrotation Yrotation Xrotation
				JOINT lowerneck
				{
					OFFSET -0.013390 0.211636 -0.033468
					CHANNELS 3 Zrotation Yrotation Xrotation
					JOINT upperneck
					{
						OFFSET 0.010113 0.088937 0.050410
						CHANNELS 3 Zrotation Yrotation Xrotation
						End Site
						{
							OFFSET 0.000000 0.000000 0.000000
						}
					}
				}
				JOINT lclavicle
				{
					OFFSET 0.071702 0.114000 -0.018898
					CHANNELS 3 Zrotation Yrotation Xrotation
					JOINT lshoulder
					{
						OFFSET 0.122921 0.045205 -0.019046
						CHANNELS 3 Zrotation Yrotation Xrotation
						JOINT lelbow
						{
							OFFSET 0.255332 -0.015649 -0.022946
							CHANNELS 3 Zrotation Yrotation Xrotation
							JOINT lwrist
							{
								OFFSET 0.265709 0.012698 -0.007375
								CHANNELS 3 Zrotation Yrotation Xrotation
								End Site
								{
									OFFSET 0.000000 0.000000 0.000000
								}
							}
						}
					}
				}
				JOINT rclavicle
				{
					OFFSET -0.082954 0.112472 -0.023707
					CHANNELS 3 Zrotation Yrotation Xrotation
					JOINT rshoulder
					{
						OFFSET -0.113228 0.046853 -0.008472
						CHANNELS 3 Zrotation Yrotation Xrotation
						JOINT relbow
						{
							OFFSET -0.260127 -0.014369 -0.031269
							CHANNELS 3 Zrotation Yrotation Xrotation
							JOINT rwrist
							{
								OFFSET -0.269108 0.006794 -0.006027
								CHANNELS 3 Zrotation Yrotation Xrotation
								End Site
								{
									OFFSET 0.000000 0.000000 0.000000
								}
							}
						}
					}
				}
			}
		}
	}
}
MOTION
Frames: 12
Frame Time: 0.033333
0.015233 0.233809 1.004939 88.173703 0.242963 90.531231 6.002658 2.859354 -1.230690 -3.137843 -5.680609 2.430225 -0.190087 8.266294 -5.405361 0.000000 -0.000000 0.000000 -5.984295 -3.602336 -3.881138 1.514393 -0.185299 5.487053 2.554348 -4.575866 -3.977966 0.000000 -0.000000 0.000000 -0.269835 2.168251 5.084216 -1.768922 -2.429773 7.254958 -2.947149 -0.261342 -9.988302 -0.766309 -11.803683 2.871066 4.118277 -9.316728 5.993880 -31.057019 1.479205 3.956912 -49.244111 -2.178367 13.551899 14.248265 -35.030434 -1.530259 -3.232349 -12.254629 0.966976 26.873961 6.127860 5.248250 53.150581 2.779456 16.293538 -3.925220 27.464337 6.087821 3.012197 7.257459 3.114381 
0.015133 0.233559 1.004850 88.224468 0.339330 90.473222 6.178859 3.113882 -1.239987 -3.255493 -6.056255 2.522115 -0.453691 8.392021 -5.389018 0.000000 -0.000000 0.000000 -5.804333 -3.664547 -3.814902 1.414355 0.034112 5.466674 2.788206 -4.787087 -3.981420 0.000000 -0.000000 0.000000 -0.083564 2.131917 5.370759 -1.899462 -2.449743 6.592325 -2.886192 -0.155964 -9.445899 -0.963393 -12.048615 2.806118 4.381285 -8.918087 5.300363 -31.018885 1.339876 4.148481 -49.264706 -2.220910 13.471832 14.220207 -35.106404 -1.287025 -3.001793 -11.950071 0.681435 26.693098 6.168860 5.113157 53.362777 2.661612 16.218312 -3.950953 27.515463 6.205192 3.148196 7.242412 3.088862 
0.014975 0.233428 1.004922 88.217941 0.359230 90.518950 6.214470 3.099207 -1.307745 -3.273012 -5.994424 2.533232 -0.458310 8.381380 -5.331948 0.000000 -0.000000 0.000000 -5.754446 -3.585338 -3.828345 1.392988 0.025036 5.348938 2.803555 -4.816793 -3.897256 0.000000 -0.000000 0.000000 -0.068239 2.135867 5.365176 -1.899094 -2.435291 6.609189 -2.842218 -0.134323 -9.471689 -0.965840 -11.915654 2.621058 4.476655 -8.834945 4.940592 -30.984326 1.283102 4.149491 -49.393403 -2.140640 13.436767 14.333660 -34.914601 -1.388633 -3.248262 -12.170724 0.880094 26.666768 6.284203 5.164637 53.415030 2.598553 16.168324 -4.016620 27.418235 6.179301 3.307091 7.307317 3.103708 
0.015106 0.233373 1.004909 88.279818 0.316097 90.532744 6.179852 3.036534 -1.336277 -3.284469 -5.979822 2.562219 -0.465973 8.338041 -5.370158 0.000000 -0.000000 0.000000 -5.811573 -3.627657 -3.870543 1.367313 -0.031592 5.461410 2.843816 -4.755024 -3.980312 0.000000 -0.000000 0.000000 -0.105897 2.120789 5.340202 -1.899904 -2.435221 6.659280 -2.807792 -0.117008 -9.545051 -0.916210 -11.762623 2.239857 4.464098 -8.786060 5.012222 -31.007109 1.207466 4.210215 -49.400894 -2.027350 13.375873 14.383374 -34.684222 -1.501664 -3.237063 -12.396628 0.949584 26.768790 6.349420 5.368862 53.344536 2.514895 16.053566 -4.123457 27.390517 6.073274 3.248058 7.345779 3.061560 
0.015348 0.233476 1.004726 88.184828 0.316213 90.455558 6.136300 2.948179 -1.173755 -3.218684 -5.935708 2.474993 -0.458133 8.469272 -5.373069 0.000000 -0.000000 0.000000 -5.843999 -3.646721 -3.761525 1.421658 0.091819 5.416476 2.917073 -4.747855 -4.032340 0.000000 -0.000000 0.000000 -0.021342 2.204128 5.305816 -1.937794 -2.425024 6.716025 -2.835401 -0.121759 -9.460626 -0.918550 -11.682777 2.187060 4.438826 -8.730732 4.967129 -31.028828 1.169585 4.216295 -49.402354 -1.992900 13.359287 14.423925 -34.548062 -1.476938 -3.308099 -12.368502 1.107127 26.732334 6.374182 5.409017 53.394439 2.569587 16.040310 -4.052063 27.256622 6.117243 3.280115 7.347774 2.996903 
0.015286 0.233403 1.004732 88.247060 0.366220 90.446154 6.208754 3.059094 -1.238527 -3.253833 -6.088887 2.581331 -0.463983 8.447500 -5.365444 0.000000 -0.000000 0.000000 -5.768199 -3.719218 -3.635532 1.409591 0.183533 5.233594 2.927131 -4.806062 -4.061416 0.000000 -0.000000 0.000000 0.041249 2.227961 5.281788 -1.932947 -2.465577 6.715359 -2.859555 -0.109732 -9.477262 -0.907080 -11.754383 2.293230 4.437573 -8.627898 4.997777 -31.068345 1.088576 4.380559 -49.281820 -1.871776 13.401092 14.491717 -34.430726 -1.427643 -3.196356 -11.583957 0.814906 26.743821 6.407269 5.418371 53.405001 2.528005 16.077876 -4.022864 27.113937 6.201027 3.189196 7.171339 2.986439 
0.015674 0.233142 1.004780 88.050235 0.403419 90.229888 6.308967 2.780351 -0.863549 -3.301169 -5.855041 2.476194 -0.355959 8.614723 -5.386471 0.000000 -0.000000 0.000000 -5.701449 -3.737694 -3.535550 1.397685 0.302252 5.435156 2.799370 -4.781025 -4.063472 0.000000 -0.000000 0.000000 0.066973 2.358715 5.402797 -1.946981 -2.393507 6.745341 -2.847907 -0.133746 -9.481553 -0.824976 -11.699462 2.435081 4.398143 -8.690049 5.088161 -31.141159 1.163130 4.329919 -49.115563 -1.795231 13.301763 14.359572 -34.383691 -1.231944 -3.307434 -11.432311 0.843388 26.800617 6.335387 5.362400 53.381725 2.512248 16.136042 -3.969628 27.057299 6.287681 3.304215 7.092987 3.007263 
0.015386 0.233360 1.004622 88.170206 0.365941 90.402524 6.221981 2.963736 -1.199251 -3.261692 -5.981275 2.651850 -0.409628 8.540781 -5.389055 0.000000 -0.000000 0.000000 -5.755937 -3.770224 -3.757197 1.411519 0.206791 5.506468 2.805041 -4.763956 -4.036312 0.000000 -0.000000 0.000000 0.032453 2.344762 5.143091 -1.898774 -2.462157 6.875142 -2.869462 -0.121476 -9.468126 -0.844035 -11.741297 2.408870 4.429027 -8.718053 5.055694 -31.016544 1.207032 4.261677 -49.293531 -1.769838 13.398931 14.383983 -33.957593 -1.460496 -3.393310 -11.595296 1.090425 26.812478 6.361576 5.419001 53.328867 2.562811 16.066182 -3.997136 27.018012 6.105915 3.250448 7.173939 3.189592 
0.015406 0.233314 1.004640 88.180887 0.374279 90.373296 6.240291 2.994261 -1.184528 -3.278050 -6.020752 2.680697 -0.467053 8.537786 -5.388023 0.000000 -0.000000 0.000000 -5.748711 -3.782596 -3.680189 1.417026 0.241731 5.402734 2.834075 -4.799223 -4.012015 0.000000 -0.000000 0.000000 0.037209 2.340605 5.131665 -1.884380 -2.473137 6.902384 -2.870016 -0.122109 -9.477861 -0.824518 -11.808409 2.452027 4.427550 -8.740718 5.047132 -31.015008 1.289340 4.247664 -49.255149 -1.712769 13.413910 14.320725 -33.901747 -1.364995 -3.409273 -11.481442 1.164373 26.829443 6.310727 5.379463 53.293980 2.559553 16.066346 -3.947175 27.029579 6.149904 3.277311 7.120934 3.278908 
0.015268 0.233316 1.004588 88.229201 0.380609 90.354781 6.239556 2.979046 -1.209148 -3.264895 -6.067654 2.750435 -0.453462 8.548898 -5.470236 0.000000 -0.000000 0.000000 -5.705357 -3.791588 -3.694865 1.399070 0.251226 5.515580 2.791171 -4.856088 -4.096145 0.000000 -0.000000 0.000000 0.038572 2.328530 5.119196 -1.866276 -2.492900 6.982470 -2.855144 -0.094924 -9.514294 -0.789778 -11.826941 2.355211 4.412861 -8.713309 5.055999 -31.106001 1.316647 4.262117 -49.120416 -1.688827 13.360209 14.204303 -33.747496 -1.314822 -3.435376 -11.421936 1.230507 26.868070 6.316247 5.347069 53.225705 2.540349 16.051026 -3.935461 27.038525 6.130445 3.264953 7.129816 3.313452 
0.015276 0.233282 1.004562 88.247273 0.370031 90.345374 6.254584 2.963660 -1.180459 -3.290254 -6.049325 2.712316 -0.454017 8.542285 -5.459841 0.000000 -0.000000 0.000000 -5.745126 -3.747060 -3.662578 1.422188 0.252300 5.479282 2.843364 -4.836940 -4.065461 0.000000 -0.000000 0.000000 0.010896 2.351790 5.080569 -1.855479 -2.483643 6.996527 -2.815303 -0.096256 -9.501879 -0.827681 -11.732938 2.329592 4.427199 -8.644714 5.082960 -31.069953 1.315881 4.322607 -49.177118 -1.663515 13.341220 14.195086 -33.601941 -1.211872 -3.515399 -11.755501 1.168652 26.860028 6.317122 5.416495 53.220794 2.586432 16.000716 -3.962182 27.011257 6.130873 3.252089 7.236673 3.301245 
0.015228 0.233374 1.004515 88.259266 0.330571 90.367135 6.194774 2.945106 -1.218235 -3.280454 -6.095944 2.738128 -0.457706 8.565904 -5.466943 0.000000 -0.000000 0.000000 -5.793468 -3.797544 -3.749891 1.398320 0.251749 5.623164 2.856554 -4.794571 -4.079453 0.000000 -0.000000 0.000000 -0.004452 2.386243 5.018165 -1.854827 -2.467854 7.073064 -2.833620 -0.049376 -9.527128 -0.826535 -11.613607 2.269092 4.454813 -8.551485 5.081428 -31.006292 1.323667 4.233826 -49.214514 -1.674062 13.392326 14.059108 -33.512510 -1.065152 -3.583226 -11.865490 1.242387 26.862417 6.291445 5.408619 53.242613 2.623810 15.955397 -4.014096 26.981152 6.034345 3.251211 7.310268 3.332669 
